<svg xmlns="http://www.w3.org/2000/svg" xmlns:xlink="http://www.w3.org/1999/xlink" width="48" height="48" viewBox="0 0 48 48">
  <defs>
    <clipPath id="clip-Basketball_Icon">
      <rect width="48" height="48"/>
    </clipPath>
  </defs>
  <g id="Basketball_Icon" data-name="Basketball Icon" clip-path="url(#clip-Basketball_Icon)">
    <g id="noun_Basketball_43157" transform="translate(-3.852 -2.843)">
      <g id="Group_1013" data-name="Group 1013" transform="translate(4.298 3.289)">
        <path id="Path_1077" data-name="Path 1077" d="M62.086,74.384c-.389.272-.836.6-1.352.99C57.95,77.4,48.517,84.009,38.561,84.2A23.073,23.073,0,0,0,58.7,80,18.355,18.355,0,0,0,62.086,74.384Z" transform="translate(-21.357 -38.817)" fill="rgba(255,223,159,0.51)"/>
        <path id="Path_1078" data-name="Path 1078" d="M85.8,74.77A23.12,23.12,0,0,0,87.5,72.2c-.147-.077-.376-.059-.748.1A22.1,22.1,0,0,1,85.8,74.77Z" transform="translate(-44.383 -37.734)" fill="rgba(255,223,159,0.51)"/>
        <path id="Path_1079" data-name="Path 1079" d="M89.064,58.36a23.726,23.726,0,0,1-.642,4.256,1.605,1.605,0,0,1,1.012.058,22.917,22.917,0,0,0,2.2-7.528A15.112,15.112,0,0,1,89.064,58.36Z" transform="translate(-45.659 -29.441)" fill="rgba(255,223,159,0.51)"/>
        <path id="Path_1080" data-name="Path 1080" d="M88.731,42.953a27.155,27.155,0,0,1,.529,5.02A8.284,8.284,0,0,0,91.925,44.7c.009-.256.02-.511.02-.769a23.063,23.063,0,0,0-.9-6.388A9.886,9.886,0,0,1,88.731,42.953Z" transform="translate(-45.81 -20.859)" fill="rgba(255,223,159,0.51)"/>
        <path id="Path_1081" data-name="Path 1081" d="M67.954,25.556c1.4-1.152,2.036-3.6,1.51-7A23.066,23.066,0,0,0,48.451,5c-.548,0-1.091.026-1.63.064C57.4,6.663,65.383,15.559,67.954,25.556Z" transform="translate(-25.383 -5)" fill="rgba(255,223,159,0.51)"/>
        <path id="Path_1082" data-name="Path 1082" d="M31.857,22.032c10.252,5.592,13.527,6.741,18.044,5.144C46.408,12.95,33.9,6.313,25.358,6.818a23.11,23.11,0,0,0-12.506,9.1C16.859,15.037,20.35,16.165,31.857,22.032Z" transform="translate(-8.827 -5.873)" fill="rgba(255,223,159,0.51)"/>
        <path id="Path_1083" data-name="Path 1083" d="M28.691,73.306c2.375-.7,13.133-6.706,14.53-7.4.619-.31,2.007-1.332,3.336-2a20.24,20.24,0,0,0,.613-3.765c-1.788,1-4.379,1.7-8.979,2.69-6.7,1.875-20.831,4-32.7-6.159a23.085,23.085,0,0,0,12.1,17.008C22.291,74.671,23.835,74.491,28.691,73.306Z" transform="translate(-5.242 -30.183)" fill="rgba(255,223,159,0.51)"/>
        <path id="Path_1084" data-name="Path 1084" d="M37.251,46.913a37.318,37.318,0,0,0,9.728-3.179,25.987,25.987,0,0,0-.227-3.108c-.075-.6-.168-1.193-.272-1.774-2.164,1.173-5.547,1.325-10.9-.6-5.589-2.654-18.3-11.177-23.752-11.177A13.753,13.753,0,0,0,8.205,27,22.953,22.953,0,0,0,5,38.733c0,.559.027,1.111.066,1.66C9.526,45.209,23.439,50.77,37.251,46.913Z" transform="translate(-5 -15.665)" fill="rgba(255,223,159,0.51)"/>
      </g>
    </g>
  </g>
</svg>
