<svg xmlns="http://www.w3.org/2000/svg" xmlns:xlink="http://www.w3.org/1999/xlink" width="48" height="48" viewBox="0 0 48 48">
  <defs>
    <clipPath id="clip-Betting_Info_Icon">
      <rect width="48" height="48"/>
    </clipPath>
  </defs>
  <g id="Betting_Info_Icon" data-name="Betting Info Icon" clip-path="url(#clip-Betting_Info_Icon)">
    <path id="Icon_awesome-dice-d20" data-name="Icon awesome-dice-d20" d="M9.653,19.447.109,33.544a.723.723,0,0,0,.536,1.1l18.832,2L9.653,19.447ZM.67,28.523,7.478,17.46.548,13.3a.362.362,0,0,0-.548.31V28.334A.362.362,0,0,0,.67,28.523ZM1.65,38.3l17.579,7.927a.723.723,0,0,0,1.026-.656V39.637L1.849,37.62a.362.362,0,0,0-.2.685Zm7.344-23.31L16.223,2.069a.723.723,0,0,0-.975-1.007L1.611,9.979a.362.362,0,0,0,.012.613l7.373,4.4Zm12.708.921h9.876L22.935.689a1.447,1.447,0,0,0-2.465,0L11.827,15.915ZM42.857,13.3l-6.93,4.159,6.808,11.064a.362.362,0,0,0,.67-.19V13.612A.362.362,0,0,0,42.857,13.3ZM34.41,14.995l7.373-4.4a.362.362,0,0,0,.012-.613L28.157,1.062a.723.723,0,0,0-.975,1.007ZM41.556,37.62,23.149,39.636v5.938a.723.723,0,0,0,1.026.656L41.755,38.3A.361.361,0,0,0,41.556,37.62Zm-7.8-18.173-9.823,17.19,18.832-2a.723.723,0,0,0,.536-1.1l-9.546-14.1ZM21.7,18.809H12.621L21.7,34.7l9.082-15.893Z" transform="translate(2 1)" fill="#fff"/>
  </g>
</svg>
