<svg xmlns="http://www.w3.org/2000/svg" xmlns:xlink="http://www.w3.org/1999/xlink" width="24" height="24" viewBox="0 0 24 24">
  <defs>
    <clipPath id="clip-Dashboard_Icon">
      <rect width="24" height="24"/>
    </clipPath>
  </defs>
  <g id="Dashboard_Icon" data-name="Dashboard Icon" clip-path="url(#clip-Dashboard_Icon)">
    <path id="bxs-dashboard" d="M5.706,17.692h7.233a1.266,1.266,0,0,0,1.206-1.319V5.819A1.266,1.266,0,0,0,12.939,4.5H5.706A1.266,1.266,0,0,0,4.5,5.819V16.373A1.266,1.266,0,0,0,5.706,17.692ZM4.5,26.926a1.266,1.266,0,0,0,1.206,1.319h7.233a1.266,1.266,0,0,0,1.206-1.319V21.649a1.266,1.266,0,0,0-1.206-1.319H5.706A1.266,1.266,0,0,0,4.5,21.649Zm12.055,0a1.266,1.266,0,0,0,1.206,1.319h7.233A1.266,1.266,0,0,0,26.2,26.926V17.692a1.266,1.266,0,0,0-1.206-1.319H17.761a1.266,1.266,0,0,0-1.206,1.319Zm1.206-13.192h7.233A1.266,1.266,0,0,0,26.2,12.415v-6.6A1.266,1.266,0,0,0,24.994,4.5H17.761a1.266,1.266,0,0,0-1.206,1.319v6.6A1.266,1.266,0,0,0,17.761,13.734Z" transform="translate(-3.35 -4.373)" fill="#00db51"/>
  </g>
</svg>
