<svg xmlns="http://www.w3.org/2000/svg" xmlns:xlink="http://www.w3.org/1999/xlink" width="24" height="24" viewBox="0 0 24 24">
  <defs>
    <clipPath id="clip-Date_Icon">
      <rect width="24" height="24"/>
    </clipPath>
  </defs>
  <g id="Date_Icon" data-name="Date Icon" clip-path="url(#clip-Date_Icon)">
    <g id="noun_calender_1306191" transform="translate(896.438 -904.998)">
      <g id="Group_937" data-name="Group 937" transform="translate(-895.438 906.999)">
        <path id="Path_1038" data-name="Path 1038" d="M22.169,20.909V3.887a.37.37,0,0,0-.37-.37H17.557V2.283a1.222,1.222,0,0,0-.363-.867,1.247,1.247,0,0,0-1.735,0,1.231,1.231,0,0,0-.356.864V3.518H12.348V2.283a1.224,1.224,0,0,0-.366-.869,1.251,1.251,0,0,0-1.732.006,1.231,1.231,0,0,0-.356.864V3.518H7.022V2.283a1.219,1.219,0,0,0-.36-.867,1.249,1.249,0,0,0-1.734,0,1.227,1.227,0,0,0-.357.864V3.517H.4a.37.37,0,0,0-.37.37V17.813a.371.371,0,0,0,.194.326l5.751,3.1a.368.368,0,0,0,.176.045L21.8,21.279A.37.37,0,0,0,22.169,20.909ZM15.843,2.283a.493.493,0,0,1,.136-.338.5.5,0,0,1,.348-.146.488.488,0,0,1,.488.485V5.4a.481.481,0,0,1-.147.345.54.54,0,0,1-.683,0,.483.483,0,0,1-.141-.343Zm-5.208,0a.485.485,0,0,1,.827-.344.486.486,0,0,1,.145.344V5.4a.475.475,0,0,1-.145.342.53.53,0,0,1-.685,0,.483.483,0,0,1-.141-.343Zm-5.323,1.6v-1.6a.491.491,0,0,1,.139-.34.5.5,0,0,1,.688,0,.481.481,0,0,1,.142.343V5.4a.481.481,0,0,1-.145.346.486.486,0,0,1-.682,0A.478.478,0,0,1,5.312,5.4ZM21.428,20.539l-15.183.009L.771,17.593V4.258h3.8V5.4a1.22,1.22,0,0,0,.36.867,1.252,1.252,0,0,0,1.73,0A1.208,1.208,0,0,0,7.023,5.4V4.258H9.895V5.4a1.223,1.223,0,0,0,2.091.867A1.209,1.209,0,0,0,12.35,5.4V4.258h2.755V5.4a1.218,1.218,0,0,0,.362.867,1.246,1.246,0,0,0,1.728,0A1.209,1.209,0,0,0,17.56,5.4V4.258h3.872V20.539Z" transform="translate(-0.031 -1.067)" fill="#00db51"/>
        <path id="Path_1039" data-name="Path 1039" d="M7.987,14.223h-3.5a.37.37,0,0,0-.37.37v2.253a.37.37,0,0,0,.37.37h3.5a.37.37,0,0,0,.37-.37V14.593A.37.37,0,0,0,7.987,14.223Zm-.37,2.252H4.857V14.963h2.76v1.512Z" transform="translate(-0.338 -2.057)" fill="#00db51"/>
        <path id="Path_1040" data-name="Path 1040" d="M7.987,10.154h-3.5a.37.37,0,0,0-.37.37v2.253a.37.37,0,0,0,.37.37h3.5a.37.37,0,0,0,.37-.37V10.524A.369.369,0,0,0,7.987,10.154Zm-.37,2.252H4.857V10.894h2.76v1.512Z" transform="translate(-0.338 -1.751)" fill="#00db51"/>
        <path id="Path_1041" data-name="Path 1041" d="M15.189,10.524v2.253a.37.37,0,0,0,.37.37h3.5a.37.37,0,0,0,.37-.37V10.524a.37.37,0,0,0-.37-.37h-3.5A.37.37,0,0,0,15.189,10.524Zm.741.37h2.76v1.512H15.93Z" transform="translate(-1.171 -1.751)" fill="#00db51"/>
        <path id="Path_1042" data-name="Path 1042" d="M13.523,14.223h-3.5a.37.37,0,0,0-.37.37v2.253a.37.37,0,0,0,.37.37h3.5a.37.37,0,0,0,.37-.37V14.593A.37.37,0,0,0,13.523,14.223Zm-.37,2.252h-2.76V14.963h2.76Z" transform="translate(-0.755 -2.057)" fill="#00db51"/>
        <path id="Path_1043" data-name="Path 1043" d="M19.06,14.223h-3.5a.37.37,0,0,0-.37.37v2.253a.37.37,0,0,0,.37.37h3.5a.37.37,0,0,0,.37-.37V14.593A.371.371,0,0,0,19.06,14.223Zm-.371,2.252H15.93V14.963h2.76v1.512Z" transform="translate(-1.171 -2.057)" fill="#00db51"/>
        <path id="Path_1044" data-name="Path 1044" d="M13.523,10.154h-3.5a.37.37,0,0,0-.37.37v2.253a.37.37,0,0,0,.37.37h3.5a.37.37,0,0,0,.37-.37V10.524A.369.369,0,0,0,13.523,10.154Zm-.37,2.252h-2.76V10.894h2.76Z" transform="translate(-0.755 -1.751)" fill="#00db51"/>
      </g>
    </g>
  </g>
</svg>
