<svg xmlns="http://www.w3.org/2000/svg" xmlns:xlink="http://www.w3.org/1999/xlink" width="48" height="48" viewBox="0 0 48 48">
  <defs>
    <clipPath id="clip-DittoOffers_Icon">
      <rect width="48" height="48"/>
    </clipPath>
  </defs>
  <g id="DittoOffers_Icon" data-name="DittoOffers Icon" clip-path="url(#clip-DittoOffers_Icon)">
    <path id="Exclusion_1" data-name="Exclusion 1" d="M9.2,31.506a.68.68,0,0,1-.647-.464L6.659,25.285l-.648.208a.689.689,0,0,1-.21.033.68.68,0,0,1-.648-.465l-.631-1.919-1.945.624a.689.689,0,0,1-.21.033.68.68,0,0,1-.648-.465L.034,18.217a.664.664,0,0,1,.04-.512.675.675,0,0,1,.4-.337l1.944-.623-.632-1.919a.662.662,0,0,1,.04-.511.673.673,0,0,1,.4-.336l8.521-2.734a11.543,11.543,0,0,0,4.2-2.391L17.3,6.4a.685.685,0,0,1,1.142.254l5.053,15.352a.662.662,0,0,1-.041.511.673.673,0,0,1-.4.336.685.685,0,0,1-.212.033.706.706,0,0,1-.123-.011L19.3,22.249c-.383-.038-.773-.057-1.159-.057a11.718,11.718,0,0,0-3.607.568l-3.986,1.279,1.9,5.756a.661.661,0,0,1-.04.509.673.673,0,0,1-.4.337l-2.595.833A.689.689,0,0,1,9.2,31.506Zm.333-7.948L6.6,24.525l2.324,6.157,2.751-.784ZM4.586,14.635l-1.3.415,2.316,7.037L6.238,24l1.3-.415ZM17.6,6.9,14,10.642,5.252,14.323,8.617,23.8l7.765-2.112,6.6.423ZM2.837,18.024l-1.3.416L2.8,22.278l1.3-.415Zm6.8,11.962h0L7.955,24.87l1.3-.417,1.685,5.117-1.3.416ZM8.83,23.174h0L5.882,14.218l5.283-1.694a12.942,12.942,0,0,0,4.726-2.707l1.6-1.669,4.345,13.2-2.347-.43a13.149,13.149,0,0,0-5.381.561L8.831,23.174Zm22.189-.9h0l-7.3-2.607.463-1.266,7.306,2.608-.463,1.264Zm7.827-2.638a5.43,5.43,0,0,1-5.181-3.718,5.287,5.287,0,0,1,.314-4.081,5.392,5.392,0,0,1,3.185-2.7,5.508,5.508,0,0,1,1.685-.265,5.43,5.43,0,0,1,5.182,3.719,5.291,5.291,0,0,1-.312,4.072,5.4,5.4,0,0,1-3.172,2.7l-.014,0A5.512,5.512,0,0,1,38.846,19.635Zm-1.89-8.954a4,4,0,0,0-2,4.819,4.066,4.066,0,0,0,3.881,2.785,4.174,4.174,0,0,0,.6-.044l-.231-.7a2.045,2.045,0,0,1-1.888-1.386l1.3-.416a.685.685,0,0,0,1.256.1.664.664,0,0,0,.041-.512c-.111-.336-.254-.4-.9-.4h-.338A1.983,1.983,0,0,1,36.483,13.6a2.007,2.007,0,0,1,.7-2.218l-.23-.7Zm2.053,2.9a1.982,1.982,0,0,1,1.5,3.549l.23.7a4,4,0,0,0,2-4.82,4.068,4.068,0,0,0-3.882-2.786,4.168,4.168,0,0,0-.6.044l.23.7a2.044,2.044,0,0,1,1.888,1.386l-1.3.416a.676.676,0,0,0-.647-.465.689.689,0,0,0-.211.033.677.677,0,0,0-.4.339.66.66,0,0,0-.039.508c.111.335.253.4.892.4h.339Zm-16.327.759h0l-.319-.971L26.3,12.1l.319.971-3.933,1.262ZM21.11,9.216h0l-1.068-.834L24.61,2.673l1.069.835L21.11,9.215Zm12-2.489A3.394,3.394,0,0,1,29.874,4.4a3.3,3.3,0,0,1,.2-2.55A3.372,3.372,0,0,1,32.062.165,3.449,3.449,0,0,1,33.112,0a3.4,3.4,0,0,1,3.242,2.324,3.307,3.307,0,0,1-.2,2.546,3.371,3.371,0,0,1-1.98,1.688l-.006,0-.006,0A3.445,3.445,0,0,1,33.113,6.727Zm-1.182-5.6a2.5,2.5,0,0,0-1.247,3.012,2.54,2.54,0,0,0,2.424,1.741,2.6,2.6,0,0,0,.378-.028l-.144-.437a1.28,1.28,0,0,1-1.181-.866l.81-.26a.424.424,0,0,0,.405.291.433.433,0,0,0,.131-.02.423.423,0,0,0,.249-.212.412.412,0,0,0,.024-.318c-.07-.211-.159-.251-.564-.251H33a1.234,1.234,0,0,1-1.365-.831,1.251,1.251,0,0,1,.44-1.385ZM33.22,2.94a1.24,1.24,0,0,1,1.372.832,1.257,1.257,0,0,1-.439,1.386L34.3,5.6a2.5,2.5,0,0,0,1.247-3.012A2.542,2.542,0,0,0,33.118.843a2.606,2.606,0,0,0-.377.028l.144.437a1.28,1.28,0,0,1,1.181.866l-.81.26a.424.424,0,0,0-.4-.291.43.43,0,0,0-.132.021.425.425,0,0,0-.249.211.415.415,0,0,0-.025.319c.069.209.157.248.552.248h.222Z" transform="translate(2 8.669)" fill="#fff"/>
  </g>
</svg>
