<svg xmlns="http://www.w3.org/2000/svg" xmlns:xlink="http://www.w3.org/1999/xlink" width="24" height="24" viewBox="0 0 24 24">
  <defs>
    <clipPath id="clip-DittoMatches_Icon_5">
      <rect width="24" height="24"/>
    </clipPath>
  </defs>
  <g id="DittoMatches_Icon_5" data-name="DittoMatches Icon 5" clip-path="url(#clip-DittoMatches_Icon_5)">
    <g id="noun_Match_3203208" transform="translate(-25.989 -13.515)">
      <g id="Group_2488" data-name="Group 2488" transform="translate(27.6 13.7)">
        <path id="Path_6548" data-name="Path 6548" d="M47.682,77.8H28.3a.713.713,0,0,0-.7.7v2.6a.713.713,0,0,0,.7.7H47.682a.713.713,0,0,0,.7-.7V78.5A.713.713,0,0,0,47.682,77.8Z" transform="translate(-27.6 -58.159)" fill="#00db51"/>
        <path id="Path_6549" data-name="Path 6549" d="M48.552,18.245A1.247,1.247,0,0,0,49.8,16.993V14.952a1.252,1.252,0,0,0-2.5,0v2.041A1.247,1.247,0,0,0,48.552,18.245Z" transform="translate(-38.163 -13.7)" fill="#00db51"/>
        <path id="Path_6550" data-name="Path 6550" d="M36.006,20.61h0a1.348,1.348,0,0,0,1.113.649,1.065,1.065,0,0,0,.649-.186,1.24,1.24,0,0,0,.464-1.716l-1.02-1.809a1.46,1.46,0,0,0-.788-.6,1.222,1.222,0,0,0-.974.139,1.46,1.46,0,0,0-.6.788,1.222,1.222,0,0,0,.139.974Z" transform="translate(-31.461 -15.416)" fill="#00db51"/>
        <path id="Path_6551" data-name="Path 6551" d="M58.1,21.16a1.51,1.51,0,0,0,.649.186,1.249,1.249,0,0,0,1.113-.649l1.02-1.762a1.257,1.257,0,1,0-2.18-1.252l-1.02,1.762A1.235,1.235,0,0,0,58.1,21.16Z" transform="translate(-43.626 -15.501)" fill="#00db51"/>
        <path id="Path_6552" data-name="Path 6552" d="M31.731,43.575h6.076V39.818a.826.826,0,0,1,.464-.742.917.917,0,0,1,.51-.093h.093a4.39,4.39,0,0,1,1.9.464,1.3,1.3,0,0,0,1.484-.278,1.379,1.379,0,0,0,.371-.928,1.312,1.312,0,0,0-.417-.928,1.257,1.257,0,0,0-.928-.371.935.935,0,0,0-.51.139,4.222,4.222,0,0,1-1.855.464H38.78a1.648,1.648,0,0,1-.464-.093.787.787,0,0,1-.417-.742V33H31.731A1.544,1.544,0,0,0,30.2,34.531v7.56A1.5,1.5,0,0,0,31.731,43.575Z" transform="translate(-28.994 -25.696)" fill="#00db51"/>
        <path id="Path_6553" data-name="Path 6553" d="M50.3,35.729l.417-.139a3.578,3.578,0,0,1,1.206-.325,3,3,0,0,1,2.18.835,2.919,2.919,0,0,1,.093,4.267,3.059,3.059,0,0,1-3.386.6,2.261,2.261,0,0,0-.51-.186v2.783h7.513a1.544,1.544,0,0,0,1.531-1.531V34.431A1.544,1.544,0,0,0,57.813,32.9H50.3Z" transform="translate(-39.772 -25.644)" fill="#00db51"/>
      </g>
    </g>
  </g>
</svg>
