<svg xmlns="http://www.w3.org/2000/svg" xmlns:xlink="http://www.w3.org/1999/xlink" width="24" height="24" viewBox="0 0 24 24">
  <defs>
    <clipPath id="clip-Eye_Slash_Icon">
      <rect width="24" height="24"/>
    </clipPath>
  </defs>
  <g id="Eye_Slash_Icon" data-name="Eye Slash Icon" clip-path="url(#clip-Eye_Slash_Icon)">
    <path id="Icon_awesome-eye-slash" data-name="Icon awesome-eye-slash" d="M11.861,14.826a5.317,5.317,0,0,1-5.3-4.934l-3.888-3a12.353,12.353,0,0,0-1.361,2.06,1.2,1.2,0,0,0,0,1.082A11.888,11.888,0,0,0,11.861,16.6a11.513,11.513,0,0,0,2.887-.388l-1.923-1.488A5.342,5.342,0,0,1,11.861,14.826Zm11.632,2.153-4.1-3.167a12.278,12.278,0,0,0,3.012-3.783,1.2,1.2,0,0,0,0-1.082A11.888,11.888,0,0,0,11.861,2.372a11.421,11.421,0,0,0-5.46,1.4L1.685.125a.593.593,0,0,0-.832.1l-.728.937A.593.593,0,0,0,.229,2L22.036,18.852a.593.593,0,0,0,.832-.1l.728-.937a.593.593,0,0,0-.1-.832Zm-6.81-5.263L15.226,10.59a3.512,3.512,0,0,0-4.3-4.519,1.766,1.766,0,0,1,.345,1.046,1.729,1.729,0,0,1-.057.371L8.482,5.378a5.275,5.275,0,0,1,3.378-1.227A5.334,5.334,0,0,1,17.2,9.488a5.211,5.211,0,0,1-.515,2.228Z" transform="translate(0 3)" fill="#838282"/>
  </g>
</svg>
