<svg xmlns="http://www.w3.org/2000/svg" xmlns:xlink="http://www.w3.org/1999/xlink" width="48" height="48" viewBox="0 0 48 48">
  <defs>
    <clipPath id="clip-Football_Icon">
      <rect width="48" height="48"/>
    </clipPath>
  </defs>
  <g id="Football_Icon" data-name="Football Icon" clip-path="url(#clip-Football_Icon)">
    <path id="Icon_ionic-ios-football" data-name="Icon ionic-ios-football" d="M26.536,3.375A23.161,23.161,0,1,0,49.7,26.536,23.157,23.157,0,0,0,26.536,3.375ZM40.71,12.361a19.887,19.887,0,0,1,2.516,3.062.408.408,0,0,1,.045.39l-1.6,4.6a.442.442,0,0,1-.234.256l-6.4,2.917a.448.448,0,0,1-.468-.067l-6.3-5.3a.457.457,0,0,1-.156-.345V10.846a.445.445,0,0,1,.2-.367l4.276-2.906a.439.439,0,0,1,.39-.056A20.293,20.293,0,0,1,40.71,12.361ZM32.482,45.5a.411.411,0,0,1-.29.267,20.014,20.014,0,0,1-5.657.8,20.363,20.363,0,0,1-5.657-.8.461.461,0,0,1-.29-.267L18.763,40.71a.467.467,0,0,1,.022-.367l2.483-4.71a.45.45,0,0,1,.39-.234H31.4a.437.437,0,0,1,.39.234l2.483,4.71a.467.467,0,0,1,.022.367Zm-7.5-34.629v7.026a.457.457,0,0,1-.156.345l-6.313,5.289a.448.448,0,0,1-.468.067l-6.4-2.917a.439.439,0,0,1-.234-.256L9.8,15.835a.436.436,0,0,1,.045-.39A20.187,20.187,0,0,1,20.111,7.562a.439.439,0,0,1,.39.056l4.276,2.906A.369.369,0,0,1,24.977,10.869ZM6.682,27.437l4.02-3.474a.445.445,0,0,1,.479-.067l5.835,2.65a.446.446,0,0,1,.245.3l1.626,6.38a.532.532,0,0,1-.033.323l-2.583,4.888a.434.434,0,0,1-.4.234l-5.122-.067a.465.465,0,0,1-.356-.178A19.9,19.9,0,0,1,6.526,27.8.487.487,0,0,1,6.682,27.437Zm30.109,10.99L34.219,33.55a.408.408,0,0,1-.033-.323l1.626-6.38a.446.446,0,0,1,.245-.3l5.835-2.65a.468.468,0,0,1,.479.067l4.02,3.474a.451.451,0,0,1,.156.367,19.842,19.842,0,0,1-3.864,10.623.433.433,0,0,1-.356.178l-5.133.067A.488.488,0,0,1,36.791,38.428Z" transform="translate(-2.363 -2.375)" fill="rgba(255,223,159,0.51)"/>
  </g>
</svg>
