<svg xmlns="http://www.w3.org/2000/svg" xmlns:xlink="http://www.w3.org/1999/xlink" width="48" height="48" viewBox="0 0 48 48">
  <defs>
    <clipPath id="clip-Great_Icon">
      <rect width="48" height="48"/>
    </clipPath>
  </defs>
  <g id="Great_Icon" data-name="Great Icon" clip-path="url(#clip-Great_Icon)">
    <path id="Icon_awesome-thumbs-up" data-name="Icon awesome-thumbs-up" d="M8.831,19.02H2.038A2.038,2.038,0,0,0,0,21.058V41.436a2.038,2.038,0,0,0,2.038,2.038H8.831a2.038,2.038,0,0,0,2.038-2.038V21.058A2.038,2.038,0,0,0,8.831,19.02Zm-3.4,21.058a2.038,2.038,0,1,1,2.038-2.038A2.038,2.038,0,0,1,5.434,40.077ZM32.605,6.916c0,3.6-2.205,5.622-2.826,8.028h8.637a5.073,5.073,0,0,1,5.057,4.933,6.148,6.148,0,0,1-1.651,4.177l-.009.009a7.093,7.093,0,0,1-.79,6.748,6.714,6.714,0,0,1-1.391,6.348,4.508,4.508,0,0,1-.522,3.79c-1.733,2.49-6.028,2.525-9.66,2.525h-.242c-4.1,0-7.456-1.494-10.152-2.694a13.363,13.363,0,0,0-4.471-1.374,1.019,1.019,0,0,1-1-1.019V20.236a1.018,1.018,0,0,1,.3-.724c3.364-3.324,4.81-6.843,7.567-9.6,1.257-1.259,1.714-3.162,2.156-5C23.988,3.336,24.778,0,26.492,0,28.53,0,32.605.679,32.605,6.916Z" transform="translate(2 2)" fill="#fff"/>
  </g>
</svg>
