<svg xmlns="http://www.w3.org/2000/svg" xmlns:xlink="http://www.w3.org/1999/xlink" width="72" height="72" viewBox="0 0 72 72">
  <defs>
    <filter id="Ellipse_32" x="-7.5" y="-4.5" width="86.851" height="86.851" filterUnits="userSpaceOnUse">
      <feOffset dy="3" input="SourceAlpha"/>
      <feGaussianBlur stdDeviation="3" result="blur"/>
      <feFlood flood-opacity="0.161"/>
      <feComposite operator="in" in2="blur"/>
      <feComposite in="SourceGraphic"/>
    </filter>
    <filter id="Path_1159" x="18.676" y="13.424" width="43.997" height="50.795" filterUnits="userSpaceOnUse">
      <feOffset dy="3" input="SourceAlpha"/>
      <feGaussianBlur stdDeviation="3" result="blur-2"/>
      <feFlood flood-opacity="0.161"/>
      <feComposite operator="in" in2="blur-2"/>
      <feComposite in="SourceGraphic"/>
    </filter>
    <filter id="Path_1160" x="9.463" y="26.793" width="24.264" height="37.425" filterUnits="userSpaceOnUse">
      <feOffset dy="3" input="SourceAlpha"/>
      <feGaussianBlur stdDeviation="3" result="blur-3"/>
      <feFlood flood-opacity="0.161"/>
      <feComposite operator="in" in2="blur-3"/>
      <feComposite in="SourceGraphic"/>
    </filter>
    <clipPath id="clip-Great_rounded_Icon">
      <rect width="72" height="72"/>
    </clipPath>
  </defs>
  <g id="Great_rounded_Icon" data-name="Great rounded Icon" clip-path="url(#clip-Great_rounded_Icon)">
    <g id="Group_2262" data-name="Group 2262" transform="translate(2 2)">
      <g transform="matrix(1, 0, 0, 1, -2, -2)" filter="url(#Ellipse_32)">
        <ellipse id="Ellipse_32-2" data-name="Ellipse 32" cx="33.926" cy="33.925" rx="33.926" ry="33.925" transform="translate(2 2)" fill="rgba(0,0,0,0.51)" stroke="#00db51" stroke-width="1"/>
      </g>
      <g id="Icon_ionic-md-thumbs-up" data-name="Icon ionic-md-thumbs-up" transform="translate(16.963 18.133)">
        <g transform="matrix(1, 0, 0, 1, -18.96, -20.13)" filter="url(#Path_1159)">
          <path id="Path_1159-2" data-name="Path 1159" d="M14.376,36.086H28.524a3.018,3.018,0,0,0,2.813-1.925l4.7-11.137a3.148,3.148,0,0,0,.214-1.152V18.7c0-1.736-1.4-3.669-3.109-3.669h-9.8l1.481-6.7.049-.494a2.384,2.384,0,0,0-.683-1.67L22.519,4.5,12.155,14.971a3.166,3.166,0,0,0-.9,2.229V32.993A3.1,3.1,0,0,0,14.376,36.086Z" transform="translate(16.93 15.63)" fill="#00db51" stroke="#118d3f" stroke-width="1"/>
        </g>
        <g transform="matrix(1, 0, 0, 1, -18.96, -20.13)" filter="url(#Path_1160)">
          <path id="Path_1160-2" data-name="Path 1160" d="M3.375,15.75H8.639V34.175H3.375Z" transform="translate(15.59 17.54)" fill="#00db51" stroke="#118d3f" stroke-width="1"/>
        </g>
      </g>
    </g>
  </g>
</svg>
