<svg xmlns="http://www.w3.org/2000/svg" xmlns:xlink="http://www.w3.org/1999/xlink" width="48" height="48" viewBox="0 0 48 48">
  <defs>
    <clipPath id="clip-LeaderBoard_Icon">
      <rect width="48" height="48"/>
    </clipPath>
  </defs>
  <g id="LeaderBoard_Icon" data-name="LeaderBoard Icon" clip-path="url(#clip-LeaderBoard_Icon)">
    <path id="Icon_ionic-ios-trophy" data-name="Icon ionic-ios-trophy" d="M46.549,8.366H39.461V6.218A1.723,1.723,0,0,0,37.743,4.5H13.685a1.723,1.723,0,0,0-1.718,1.718V8.366H4.879a1.508,1.508,0,0,0-1.5,1.5h0c0,4.436.838,7.088,2.427,9.709a8.745,8.745,0,0,0,6.047,4.328.882.882,0,0,1,.666.526c.666,1.654,2.169,3.737,5.488,5.606a20.709,20.709,0,0,0,5.553,2.32.862.862,0,0,1,.666.838v8.678a.862.862,0,0,1-.859.859H16.317a1.54,1.54,0,0,0-1.547,1.428,1.505,1.505,0,0,0,1.5,1.579H35.133a1.54,1.54,0,0,0,1.547-1.428,1.505,1.505,0,0,0-1.5-1.579H28.088a.862.862,0,0,1-.859-.859V33.208a.862.862,0,0,1,.666-.838,21.215,21.215,0,0,0,5.553-2.32c3.319-1.869,4.822-3.952,5.488-5.606a.86.86,0,0,1,.666-.526,8.745,8.745,0,0,0,6.047-4.328c1.568-2.631,2.406-5.284,2.406-9.72h0A1.508,1.508,0,0,0,46.549,8.366ZM11.967,20.245a.432.432,0,0,1-.58.408,6.258,6.258,0,0,1-3.286-3.1,11.31,11.31,0,0,1-1.622-5.241.861.861,0,0,1,.859-.934h3.77a.862.862,0,0,1,.859.859Zm31.361-2.7a6.258,6.258,0,0,1-3.286,3.1.432.432,0,0,1-.58-.408V12.233a.862.862,0,0,1,.859-.859h3.77a.861.861,0,0,1,.859.934A11.44,11.44,0,0,1,43.327,17.549Z" transform="translate(-2.131 -1.275)" fill="#fff"/>
  </g>
</svg>
