<svg xmlns="http://www.w3.org/2000/svg" xmlns:xlink="http://www.w3.org/1999/xlink" width="48" height="48" viewBox="0 0 48 48">
  <defs>
    <clipPath id="clip-League_Dummy_Icon">
      <rect width="48" height="48"/>
    </clipPath>
  </defs>
  <g id="League_Dummy_Icon" data-name="League Dummy Icon" clip-path="url(#clip-League_Dummy_Icon)">
    <path id="Path_1107" data-name="Path 1107" d="M22.921,45.841A22.921,22.921,0,1,0,0,22.921,22.947,22.947,0,0,0,22.921,45.841Zm0-.705a22.075,22.075,0,0,1-11.3-3.1l.284-.448c3.4-5.362,6.925-11.261,11.1-18.565,1.172-2.052,2.406-4.005,3.631-5.821a58.852,58.852,0,0,1,6.111,4.936c-.062.077-.125.151-.186.229-.243.314-.521.65-.875,1.056-1.3,1.489-5.443,7.411-4.62,21.32A22.228,22.228,0,0,1,22.921,45.136Zm4.838-.537c-.781-13.568,3.2-19.278,4.454-20.713.364-.417.65-.763.9-1.089.047-.06.1-.117.144-.177a63.382,63.382,0,0,1,9.171,10.92A22.291,22.291,0,0,1,27.758,44.6ZM45.136,22.921a22.073,22.073,0,0,1-2.34,9.907,64.293,64.293,0,0,0-9.079-10.746c3.6-3.987,9.206-5.089,10.549-5.3A22.138,22.138,0,0,1,45.136,22.921ZM44.059,16.1c-1.591.251-7.163,1.4-10.859,5.5a60.132,60.132,0,0,0-6.166-4.994,107.8,107.8,0,0,1,9.1-11.533A22.3,22.3,0,0,1,44.059,16.1ZM22.921.705A22.085,22.085,0,0,1,35.554,4.662a108.887,108.887,0,0,0-9.1,11.541,57.319,57.319,0,0,0-5.682-3.444A17.858,17.858,0,0,0,19,1.059,22.235,22.235,0,0,1,22.921.705ZM18.268,1.2a17.068,17.068,0,0,1,1.85,11.219q-.664-.34-1.3-.641A47.352,47.352,0,0,0,6.7,7.759,22.209,22.209,0,0,1,18.268,1.2ZM.705,22.921A22.114,22.114,0,0,1,6.142,8.385a46.779,46.779,0,0,1,13.816,4.779,17.045,17.045,0,0,1-2.368,5.4c-.047.081-4.842,8.09-16.189,9.877A22.178,22.178,0,0,1,.705,22.921Zm17.484-3.982A17.72,17.72,0,0,0,20.6,13.5a57.08,57.08,0,0,1,5.447,3.3c-1.236,1.831-2.481,3.8-3.664,5.872C18.22,29.967,14.7,35.857,11.307,41.21l-.288.455A22.3,22.3,0,0,1,1.594,29.128C13.207,27.262,18.15,19.007,18.189,18.939Z" transform="translate(0.737 0.737)" fill="rgba(255,223,159,0.51)" stroke="rgba(255,223,159,0.51)" stroke-width="1"/>
  </g>
</svg>
