<svg xmlns="http://www.w3.org/2000/svg" xmlns:xlink="http://www.w3.org/1999/xlink" width="48" height="48" viewBox="0 0 48 48">
  <defs>
    <clipPath id="clip-Personal_Profile_1">
      <rect width="48" height="48"/>
    </clipPath>
  </defs>
  <g id="Personal_Profile_1" data-name="Personal Profile – 1" clip-path="url(#clip-Personal_Profile_1)">
    <path id="Icon_ionic-ios-person" data-name="Icon ionic-ios-person" d="M50.775,49.63c-.868-3.834-5.824-5.7-7.536-6.306-1.881-.663-4.558-.82-6.282-1.206a6.382,6.382,0,0,1-2.906-1.338c-.482-.579-.193-5.944-.193-5.944a17.884,17.884,0,0,0,1.375-2.616,33.747,33.747,0,0,0,1.013-4.57s.989,0,1.338-1.736c.374-1.893.965-2.628.892-4.039-.072-1.387-.832-1.35-.832-1.35a21.14,21.14,0,0,0,.82-6.185C38.573,9.383,34.69,4.5,27.661,4.5c-7.126,0-10.924,4.883-10.815,9.839a22.05,22.05,0,0,0,.808,6.185s-.76-.036-.832,1.35c-.072,1.411.518,2.146.892,4.039.338,1.736,1.338,1.736,1.338,1.736a33.748,33.748,0,0,0,1.013,4.57,17.884,17.884,0,0,0,1.375,2.616s.289,5.365-.193,5.944a6.382,6.382,0,0,1-2.906,1.338c-1.724.386-4.4.543-6.282,1.206-1.712.6-6.668,2.472-7.536,6.306a.964.964,0,0,0,.953,1.17H49.834A.962.962,0,0,0,50.775,49.63Z" transform="translate(-3.501 -3.5)" fill="#fff"/>
  </g>
</svg>
