<svg xmlns="http://www.w3.org/2000/svg" xmlns:xlink="http://www.w3.org/1999/xlink" width="48" height="48" viewBox="0 0 48 48">
  <defs>
    <clipPath id="clip-Rating_Big_filled_Icon_">
      <rect width="48" height="48"/>
    </clipPath>
  </defs>
  <g id="Rating_Big_filled_Icon_" data-name="Rating Big filled Icon " clip-path="url(#clip-Rating_Big_filled_Icon_)">
    <g id="Group_2791" data-name="Group 2791">
      <path id="Icon_ionic-ios-star-outline" data-name="Icon ionic-ios-star-outline" d="M46.561,18.18H31.438l-4.6-13.715a1.665,1.665,0,0,0-3.125,0l-4.6,13.715H3.895A1.65,1.65,0,0,0,2.25,19.825a1.209,1.209,0,0,0,.031.278,1.58,1.58,0,0,0,.689,1.162L15.4,30.023l-4.77,13.869a1.65,1.65,0,0,0,.565,1.851,1.591,1.591,0,0,0,.925.4,2.015,2.015,0,0,0,1.028-.37l12.132-8.646,12.132,8.646a1.926,1.926,0,0,0,1.028.37,1.477,1.477,0,0,0,.915-.4,1.63,1.63,0,0,0,.565-1.851l-4.77-13.869,12.327-8.842.3-.257a1.725,1.725,0,0,0,.535-1.1A1.741,1.741,0,0,0,46.561,18.18Zm-13.077,9.51a2.887,2.887,0,0,0-1.049,3.269l3.095,9.016a.413.413,0,0,1-.627.473l-7.957-5.675a2.873,2.873,0,0,0-1.676-.535,2.819,2.819,0,0,0-1.666.535l-7.957,5.665a.411.411,0,0,1-.627-.473l3.095-9.016a2.9,2.9,0,0,0-1.059-3.29l-8.328-5.87a.413.413,0,0,1,.236-.751H19.111a2.875,2.875,0,0,0,2.724-1.964l3.043-9.068a.414.414,0,0,1,.781,0L28.7,19.074a2.875,2.875,0,0,0,2.724,1.964h10a.407.407,0,0,1,.236.74Z" transform="translate(-0.309 -0.586)" fill="#f7b32d"/>
      <path id="Path_6560" data-name="Path 6560" d="M-4441.029-8034.634l-4.806,11.791-13.412.737,10.169,8.843-4.2,14.665,12.249-8.7,12.659,8.7-4.421-14.665,12.085-9.211-14.591-.368Z" transform="translate(4466 8042)" fill="#f7b32d"/>
    </g>
  </g>
</svg>
