<svg xmlns="http://www.w3.org/2000/svg" xmlns:xlink="http://www.w3.org/1999/xlink" width="48" height="48" viewBox="0 0 48 48">
  <defs>
    <clipPath id="clip-Refer_Icon">
      <rect width="48" height="48"/>
    </clipPath>
  </defs>
  <g id="Refer_Icon" data-name="Refer Icon" clip-path="url(#clip-Refer_Icon)">
    <g id="noun_referral_1354043" transform="translate(0.462 0.254)">
      <path id="Path_1047" data-name="Path 1047" d="M23.544,35.75a6.933,6.933,0,1,1,0-3.962h10.4a11.78,11.78,0,0,1,1.071-3.3l-8.538-6.2a7.147,7.147,0,1,1,2.228-3.278l8.635,6.271a11.884,11.884,0,1,1,0,16.975l-8.633,6.272a6.827,6.827,0,0,1,.352,2.077A7.016,7.016,0,1,1,26.48,45.25l8.538-6.2a11.77,11.77,0,0,1-1.071-3.3ZM16.933,30.8A2.971,2.971,0,1,0,19.9,33.769,2.974,2.974,0,0,0,16.933,30.8Zm5.2-16.836A2.971,2.971,0,1,0,25.1,16.933,2.974,2.974,0,0,0,22.128,13.962Zm23.525,27.73a7.923,7.923,0,1,0-7.923-7.923A7.932,7.932,0,0,0,45.653,41.692ZM22.128,47.634A2.971,2.971,0,1,0,25.1,50.605,2.974,2.974,0,0,0,22.128,47.634Z" transform="translate(-10 -10)" fill="#118d3f"/>
    </g>
  </g>
</svg>
