<svg xmlns="http://www.w3.org/2000/svg" xmlns:xlink="http://www.w3.org/1999/xlink" width="48" height="48" viewBox="0 0 48 48">
  <defs>
    <clipPath id="clip-Sore_Loser_Icon_">
      <rect width="48" height="48"/>
    </clipPath>
  </defs>
  <g id="Sore_Loser_Icon_" data-name="Sore Loser Icon " clip-path="url(#clip-Sore_Loser_Icon_)">
    <path id="Icon_awesome-thumbs-up" data-name="Icon awesome-thumbs-up" d="M8.765,18.879H2.023A2.023,2.023,0,0,0,0,20.9V41.129a2.023,2.023,0,0,0,2.023,2.023H8.765a2.023,2.023,0,0,0,2.023-2.023V20.9A2.023,2.023,0,0,0,8.765,18.879ZM5.394,39.78a2.023,2.023,0,1,1,2.023-2.023A2.023,2.023,0,0,1,5.394,39.78ZM32.364,6.865c0,3.575-2.189,5.58-2.8,7.969h8.573a5.036,5.036,0,0,1,5.019,4.9,6.1,6.1,0,0,1-1.638,4.146l-.009.009a7.04,7.04,0,0,1-.784,6.7,6.665,6.665,0,0,1-1.381,6.3,4.474,4.474,0,0,1-.518,3.762c-1.72,2.471-5.984,2.506-9.589,2.506h-.24c-4.07,0-7.4-1.483-10.077-2.674a13.264,13.264,0,0,0-4.437-1.363,1.012,1.012,0,0,1-.993-1.011V20.086a1.01,1.01,0,0,1,.3-.718c3.339-3.3,4.774-6.792,7.511-9.533,1.248-1.25,1.7-3.138,2.14-4.964C23.81,3.312,24.594,0,26.3,0,28.318,0,32.364.674,32.364,6.865Z" transform="translate(45.151 45.151) rotate(180)" fill="#fff"/>
  </g>
</svg>
