<svg xmlns="http://www.w3.org/2000/svg" xmlns:xlink="http://www.w3.org/1999/xlink" width="24" height="24" viewBox="0 0 24 24">
  <defs>
    <clipPath id="clip-Sore_Loser_Green_Icon">
      <rect width="24" height="24"/>
    </clipPath>
  </defs>
  <g id="Sore_Loser_Green_Icon" data-name="Sore Loser Green Icon" clip-path="url(#clip-Sore_Loser_Green_Icon)">
    <path id="Icon_awesome-thumbs-up" data-name="Icon awesome-thumbs-up" d="M4.332,9.331H1a1,1,0,0,0-1,1v10a1,1,0,0,0,1,1H4.332a1,1,0,0,0,1-1v-10A1,1,0,0,0,4.332,9.331ZM2.666,19.662a1,1,0,1,1,1-1A1,1,0,0,1,2.666,19.662ZM16,3.393c0,1.767-1.082,2.758-1.386,3.939h4.237a2.489,2.489,0,0,1,2.481,2.42,3.016,3.016,0,0,1-.81,2.049l0,0a3.48,3.48,0,0,1-.388,3.31,3.294,3.294,0,0,1-.682,3.114,2.211,2.211,0,0,1-.256,1.859c-.85,1.222-2.957,1.239-4.739,1.239H14.33a11.958,11.958,0,0,1-4.98-1.322,6.556,6.556,0,0,0-2.193-.674.5.5,0,0,1-.491-.5v-8.9a.5.5,0,0,1,.148-.355c1.65-1.631,2.36-3.357,3.712-4.712a5.045,5.045,0,0,0,1.058-2.454C11.769,1.637,12.156,0,13,0,14,0,16,.333,16,3.393Z" transform="translate(22.328 22.71) rotate(180)" fill="#00db51"/>
  </g>
</svg>
