<svg xmlns="http://www.w3.org/2000/svg" xmlns:xlink="http://www.w3.org/1999/xlink" width="48" height="48" viewBox="0 0 48 48">
  <defs>
    <clipPath id="clip-Teams_Icon">
      <rect width="48" height="48"/>
    </clipPath>
  </defs>
  <g id="Teams_Icon" data-name="Teams Icon" clip-path="url(#clip-Teams_Icon)">
    <g id="noun_team_229037" transform="translate(0.197 -6.784)">
      <g id="Group_1112" data-name="Group 1112" transform="translate(1.333 12.784)">
        <path id="Path_1149" data-name="Path 1149" d="M40.078,62.58c-.482,0-4.739-.1-5.592-3.509L31.314,46.539c-.134-.417-.964-3.161-.226-4.84a5.212,5.212,0,0,1,4.4-2.908h9.442a4.721,4.721,0,0,1,4.64,3.564c.087.277.206,1.285-.63,4.45l-3.226,12.8-.042.079A6.2,6.2,0,0,1,40.1,62.58Z" transform="translate(-17.734 -26.014)" fill="#fff"/>
        <path id="Path_1150" data-name="Path 1150" d="M43.806,24.682a5.949,5.949,0,1,1,5.949-5.95A5.956,5.956,0,0,1,43.806,24.682Z" transform="translate(-21.331 -12.784)" fill="#fff"/>
        <path id="Path_1151" data-name="Path 1151" d="M77.106,54.435c-.314,0-3.086-.064-3.647-2.309l-1.988-7.857a5.339,5.339,0,0,1-.135-3.134,3.42,3.42,0,0,1,2.892-1.91h5.92A3.1,3.1,0,0,1,83.2,41.563a6.422,6.422,0,0,1-.395,2.869l-2.062,8.113a4.035,4.035,0,0,1-3.62,1.89h-.017Z" transform="translate(-38.261 -26.235)" fill="#fff"/>
        <path id="Path_1152" data-name="Path 1152" d="M79.444,29.66a3.875,3.875,0,1,1,3.875-3.875A3.88,3.88,0,0,1,79.444,29.66Z" transform="translate(-40.516 -17.426)" fill="#fff"/>
        <path id="Path_1153" data-name="Path 1153" d="M10.188,54.435c-.314,0-3.086-.064-3.647-2.309L4.552,44.269a5.344,5.344,0,0,1-.135-3.134,3.421,3.421,0,0,1,2.893-1.91h5.92a3.1,3.1,0,0,1,3.051,2.338,6.422,6.422,0,0,1-.394,2.869l-2.062,8.113a4.035,4.035,0,0,1-3.62,1.89h-.017Z" transform="translate(-4.217 -26.235)" fill="#fff"/>
        <path id="Path_1154" data-name="Path 1154" d="M12.525,29.66A3.875,3.875,0,1,1,16.4,25.785,3.88,3.88,0,0,1,12.525,29.66Z" transform="translate(-6.472 -17.426)" fill="#fff"/>
      </g>
    </g>
  </g>
</svg>
