<svg xmlns="http://www.w3.org/2000/svg" xmlns:xlink="http://www.w3.org/1999/xlink" width="24" height="24" viewBox="0 0 24 24">
  <defs>
    <clipPath id="clip-teams_icon_5">
      <rect width="24" height="24"/>
    </clipPath>
  </defs>
  <g id="teams_icon_5" data-name="teams icon 5" clip-path="url(#clip-teams_icon_5)">
    <g id="noun_team_229037" transform="translate(-0.894 -9.992)">
      <g id="Group_1112" data-name="Group 1112" transform="translate(1.333 12.784)">
        <path id="Path_1149" data-name="Path 1149" d="M35.562,51.018c-.248,0-2.436-.05-2.874-1.8l-1.63-6.442a4.27,4.27,0,0,1-.116-2.488A2.679,2.679,0,0,1,33.2,38.79h4.853a2.427,2.427,0,0,1,2.385,1.832,5.181,5.181,0,0,1-.324,2.288l-1.658,6.582-.021.04a3.185,3.185,0,0,1-2.863,1.487Z" transform="translate(-24.077 -32.222)" fill="#00db51"/>
        <path id="Path_1150" data-name="Path 1150" d="M40.915,18.9a3.058,3.058,0,1,1,3.058-3.058A3.062,3.062,0,0,1,40.915,18.9Z" transform="translate(-29.362 -12.784)" fill="#00db51"/>
        <path id="Path_1151" data-name="Path 1151" d="M74.2,47.043c-.162,0-1.586-.033-1.875-1.187l-1.022-4.039a2.745,2.745,0,0,1-.069-1.611,1.758,1.758,0,0,1,1.487-.982h3.043a1.592,1.592,0,0,1,1.568,1.2,3.3,3.3,0,0,1-.2,1.475l-1.06,4.17a2.074,2.074,0,0,1-1.861.972H74.2Z" transform="translate(-54.237 -32.547)" fill="#00db51"/>
        <path id="Path_1152" data-name="Path 1152" d="M77.56,25.893A1.992,1.992,0,1,1,79.552,23.9,1.994,1.994,0,0,1,77.56,25.893Z" transform="translate(-57.55 -19.605)" fill="#00db51"/>
        <path id="Path_1153" data-name="Path 1153" d="M7.286,47.043c-.162,0-1.586-.033-1.875-1.187L4.389,41.817a2.747,2.747,0,0,1-.069-1.611,1.758,1.758,0,0,1,1.487-.982H8.849a1.592,1.592,0,0,1,1.568,1.2,3.3,3.3,0,0,1-.2,1.475l-1.06,4.17a2.074,2.074,0,0,1-1.861.972H7.286Z" transform="translate(-4.217 -32.547)" fill="#00db51"/>
        <path id="Path_1154" data-name="Path 1154" d="M10.641,25.893A1.992,1.992,0,1,1,12.633,23.9,1.994,1.994,0,0,1,10.641,25.893Z" transform="translate(-7.53 -19.605)" fill="#00db51"/>
      </g>
    </g>
  </g>
</svg>
