<svg xmlns="http://www.w3.org/2000/svg" xmlns:xlink="http://www.w3.org/1999/xlink" width="48" height="48" viewBox="0 0 48 48">
  <defs>
    <clipPath id="clip-Tennis_Icon">
      <rect width="48" height="48"/>
    </clipPath>
  </defs>
  <g id="Tennis_Icon" data-name="Tennis Icon" clip-path="url(#clip-Tennis_Icon)">
    <g id="noun_Tennis_271119" transform="translate(0.967 0.562)">
      <g id="Group_1012" data-name="Group 1012" transform="translate(0.095 0.5)">
        <g id="Group_998" data-name="Group 998" transform="translate(0 30.893)">
          <path id="Path_1063" data-name="Path 1063" d="M4.465,101.088a.712.712,0,0,1-.5-.216L.716,97.627a.7.7,0,0,1,0-1.009l10.2-10.2a.7.7,0,0,1,1.009,0l3.244,3.244a.7.7,0,0,1,0,1.009l-10.2,10.2A.712.712,0,0,1,4.465,101.088ZM2.23,97.122l2.2,2.2,9.228-9.156L11.422,87.93Z" transform="translate(-0.5 -86.2)" fill="rgba(255,223,159,0.51)"/>
        </g>
        <g id="Group_999" data-name="Group 999" transform="translate(18.035)">
          <path id="Path_1064" data-name="Path 1064" d="M61.263,28.257a10.631,10.631,0,0,1-7.714-3.028c-4.758-4.758-3.785-13.482,2.2-19.466A17.026,17.026,0,0,1,67.535.5a10.631,10.631,0,0,1,7.714,3.028,11.067,11.067,0,0,1,2.92,9.372,17.3,17.3,0,0,1-5.155,10.093A16.88,16.88,0,0,1,61.263,28.257ZM67.535,1.942a15.59,15.59,0,0,0-10.742,4.83c-5.443,5.443-6.417,13.266-2.235,17.447a9.217,9.217,0,0,0,6.7,2.6,15.59,15.59,0,0,0,10.742-4.83,15.968,15.968,0,0,0,4.722-9.264A9.608,9.608,0,0,0,74.2,4.537,9.132,9.132,0,0,0,67.535,1.942Z" transform="translate(-50.532 -0.5)" fill="rgba(255,223,159,0.51)"/>
        </g>
        <g id="Group_1000" data-name="Group 1000" transform="translate(11.247 15.678)">
          <path id="Path_1065" data-name="Path 1065" d="M33.611,62.884h0a.712.712,0,0,1-.5-.216l-1.19-1.19a.7.7,0,0,1,0-1.009,22.255,22.255,0,0,0,6.417-13.7l.18-2.127a.694.694,0,0,1,.757-.649.749.749,0,0,1,.685.757,9.5,9.5,0,0,0,2.6,7.354,9.217,9.217,0,0,0,6.7,2.6H49.9a.723.723,0,0,1,.757.685.694.694,0,0,1-.649.757l-2.2.108a22.165,22.165,0,0,0-13.7,6.416A.906.906,0,0,1,33.611,62.884Zm-.216-1.947.18.18a23.6,23.6,0,0,1,11.211-5.876,9.7,9.7,0,0,1-3.316-2.2,9.878,9.878,0,0,1-2.2-3.316A23.288,23.288,0,0,1,33.394,60.937Z" transform="translate(-31.7 -43.992)" fill="rgba(255,223,159,0.51)"/>
        </g>
        <g id="Group_1001" data-name="Group 1001" transform="translate(18.492 0.469)">
          <path id="Path_1066" data-name="Path 1066" d="M52.16,16.976a.327.327,0,0,1-.252-.108.348.348,0,0,1,0-.5L66.363,1.908a.357.357,0,1,1,.5.5L52.413,16.868A.327.327,0,0,1,52.16,16.976Z" transform="translate(-51.8 -1.8)" fill="rgba(255,223,159,0.51)"/>
        </g>
        <g id="Group_1002" data-name="Group 1002" transform="translate(18.961 0.937)">
          <path id="Path_1067" data-name="Path 1067" d="M53.46,23.179a.327.327,0,0,1-.252-.108.348.348,0,0,1,0-.5L72.53,3.208a.357.357,0,1,1,.5.5L53.713,23.07A.327.327,0,0,1,53.46,23.179Z" transform="translate(-53.1 -3.1)" fill="rgba(255,223,159,0.51)"/>
        </g>
        <g id="Group_1003" data-name="Group 1003" transform="translate(21.196 3.172)">
          <path id="Path_1068" data-name="Path 1068" d="M59.66,30.712a.327.327,0,0,1-.252-.108.348.348,0,0,1,0-.5L80.1,9.408a.357.357,0,1,1,.5.5L59.913,30.6A.389.389,0,0,1,59.66,30.712Z" transform="translate(-59.3 -9.3)" fill="rgba(255,223,159,0.51)"/>
        </g>
        <g id="Group_1004" data-name="Group 1004" transform="translate(24.765 6.777)">
          <path id="Path_1069" data-name="Path 1069" d="M69.56,39.343a.327.327,0,0,1-.252-.108.348.348,0,0,1,0-.5L88.63,19.408a.357.357,0,0,1,.5.5L69.849,39.234A.409.409,0,0,1,69.56,39.343Z" transform="translate(-69.2 -19.3)" fill="rgba(255,223,159,0.51)"/>
        </g>
        <g id="Group_1005" data-name="Group 1005" transform="translate(30.136 12.112)">
          <path id="Path_1070" data-name="Path 1070" d="M84.46,49.276a.327.327,0,0,1-.252-.108.348.348,0,0,1,0-.5L98.663,34.208a.357.357,0,1,1,.5.5L84.713,49.168A.389.389,0,0,1,84.46,49.276Z" transform="translate(-84.1 -34.1)" fill="rgba(255,223,159,0.51)"/>
        </g>
        <g id="Group_1006" data-name="Group 1006" transform="translate(32.479 0.541)">
          <path id="Path_1071" data-name="Path 1071" d="M103,14.761a.327.327,0,0,1-.252-.108L90.708,2.613a.357.357,0,0,1,.5-.5l12.04,12.04a.348.348,0,0,1,0,.5A.389.389,0,0,1,103,14.761Z" transform="translate(-90.6 -2)" fill="rgba(255,223,159,0.51)"/>
        </g>
        <g id="Group_1007" data-name="Group 1007" transform="translate(27.36 2.379)">
          <path id="Path_1072" data-name="Path 1072" d="M92.081,23.141a.327.327,0,0,1-.252-.108L76.508,7.713a.357.357,0,1,1,.5-.5l15.32,15.32a.348.348,0,0,1,0,.5A.389.389,0,0,1,92.081,23.141Z" transform="translate(-76.4 -7.1)" fill="rgba(255,223,159,0.51)"/>
        </g>
        <g id="Group_1008" data-name="Group 1008" transform="translate(23.431 5.407)">
          <path id="Path_1073" data-name="Path 1073" d="M82.082,32.442a.327.327,0,0,1-.252-.108L65.608,16.113a.357.357,0,0,1,.5-.5L82.37,31.866a.348.348,0,0,1,0,.5A.848.848,0,0,1,82.082,32.442Z" transform="translate(-65.5 -15.5)" fill="rgba(255,223,159,0.51)"/>
        </g>
        <g id="Group_1009" data-name="Group 1009" transform="translate(20.403 9.336)">
          <path id="Path_1074" data-name="Path 1074" d="M72.781,42.441a.327.327,0,0,1-.252-.108l-15.32-15.32a.357.357,0,1,1,.5-.5l15.32,15.32a.348.348,0,0,1,0,.5A.389.389,0,0,1,72.781,42.441Z" transform="translate(-57.1 -26.4)" fill="rgba(255,223,159,0.51)"/>
        </g>
        <g id="Group_1010" data-name="Group 1010" transform="translate(18.565 14.455)">
          <path id="Path_1075" data-name="Path 1075" d="M64.4,53.361a.327.327,0,0,1-.252-.108l-12.04-12.04a.357.357,0,0,1,.5-.5l12.04,12.04a.348.348,0,0,1,0,.5A.389.389,0,0,1,64.4,53.361Z" transform="translate(-52 -40.6)" fill="rgba(255,223,159,0.51)"/>
        </g>
        <g id="Group_1011" data-name="Group 1011" transform="translate(26.099 33.092)">
          <path id="Path_1076" data-name="Path 1076" d="M79.244,104.989a6.344,6.344,0,1,1,6.344-6.344A6.354,6.354,0,0,1,79.244,104.989Zm0-11.211a4.9,4.9,0,1,0,4.9,4.9A4.908,4.908,0,0,0,79.244,93.778Z" transform="translate(-72.9 -92.3)" fill="rgba(255,223,159,0.51)"/>
        </g>
      </g>
    </g>
  </g>
</svg>
