<svg xmlns="http://www.w3.org/2000/svg" xmlns:xlink="http://www.w3.org/1999/xlink" width="24" height="24" viewBox="0 0 24 24">
  <defs>
    <clipPath id="clip-Terms_n_Condition_Icon">
      <rect width="24" height="24"/>
    </clipPath>
  </defs>
  <g id="Terms_n_Condition_Icon" data-name="Terms n Condition Icon" clip-path="url(#clip-Terms_n_Condition_Icon)">
    <path id="Icon_awesome-clipboard-list" data-name="Icon awesome-clipboard-list" d="M15.507,2.954H11.815a2.954,2.954,0,1,0-5.908,0H2.215A2.216,2.216,0,0,0,0,5.169V21.415A2.216,2.216,0,0,0,2.215,23.63H15.507a2.216,2.216,0,0,0,2.215-2.215V5.169A2.216,2.216,0,0,0,15.507,2.954ZM4.431,19.569a1.108,1.108,0,1,1,1.108-1.108A1.105,1.105,0,0,1,4.431,19.569Zm0-4.431a1.108,1.108,0,1,1,1.108-1.108A1.105,1.105,0,0,1,4.431,15.138Zm0-4.431A1.108,1.108,0,1,1,5.538,9.6,1.105,1.105,0,0,1,4.431,10.708ZM8.861,1.846A1.108,1.108,0,1,1,7.754,2.954,1.105,1.105,0,0,1,8.861,1.846ZM14.769,18.83a.37.37,0,0,1-.369.369H7.754a.37.37,0,0,1-.369-.369v-.738a.37.37,0,0,1,.369-.369H14.4a.37.37,0,0,1,.369.369Zm0-4.431a.37.37,0,0,1-.369.369H7.754a.37.37,0,0,1-.369-.369v-.738a.37.37,0,0,1,.369-.369H14.4a.37.37,0,0,1,.369.369Zm0-4.431a.37.37,0,0,1-.369.369H7.754a.37.37,0,0,1-.369-.369V9.231a.37.37,0,0,1,.369-.369H14.4a.37.37,0,0,1,.369.369Z" transform="translate(3.139 0.185)" fill="#fff"/>
  </g>
</svg>
