<svg xmlns="http://www.w3.org/2000/svg" xmlns:xlink="http://www.w3.org/1999/xlink" width="48" height="48" viewBox="0 0 48 48">
  <defs>
    <filter id="Path_6563">
      <feOffset dy="3" input="SourceAlpha"/>
      <feGaussianBlur stdDeviation="3" result="blur"/>
      <feFlood flood-color="#ffdf9f" flood-opacity="0.51" result="color"/>
      <feComposite operator="out" in="SourceGraphic" in2="blur"/>
      <feComposite operator="in" in="color"/>
      <feComposite operator="in" in2="SourceGraphic"/>
    </filter>
    <clipPath id="clip-Trending_Games">
      <rect width="48" height="48"/>
    </clipPath>
  </defs>
  <g id="Trending_Games" data-name="Trending Games" clip-path="url(#clip-Trending_Games)">
    <g id="score" transform="translate(1.135 1.135)">
      <path id="Path_6561" data-name="Path 6561" d="M41.621,211H4.108A4.091,4.091,0,0,0,0,215.019v18.845a4.091,4.091,0,0,0,4.108,4.019H41.621a4.091,4.091,0,0,0,4.109-4.019V215.019A4.091,4.091,0,0,0,41.621,211Z" transform="translate(0 -192.155)" fill="#fff"/>
      <path id="Path_6562" data-name="Path 6562" d="M278.865,215.019v18.845a4.091,4.091,0,0,1-4.109,4.019H256V211h18.756A4.091,4.091,0,0,1,278.865,215.019Z" transform="translate(-233.135 -192.155)" fill="#00db51"/>
      <g data-type="innerShadowGroup">
        <path id="Path_6563-2" data-name="Path 6563" d="M94.493,271H62.34A1.327,1.327,0,0,0,61,272.34v13.487a1.327,1.327,0,0,0,1.34,1.34H94.493a1.327,1.327,0,0,0,1.34-1.34V272.34A1.327,1.327,0,0,0,94.493,271Z" transform="translate(-55.552 -246.796)" fill="#00db51"/>
        <g transform="matrix(1, 0, 0, 1, -1.14, -1.14)" filter="url(#Path_6563)">
          <path id="Path_6563-3" data-name="Path 6563" d="M94.493,271H62.34A1.327,1.327,0,0,0,61,272.34v13.487a1.327,1.327,0,0,0,1.34,1.34H94.493a1.327,1.327,0,0,0,1.34-1.34V272.34A1.327,1.327,0,0,0,94.493,271Z" transform="translate(-54.42 -245.66)" fill="#fff"/>
        </g>
      </g>
      <g id="Group_2844" data-name="Group 2844" transform="translate(8.128 24.204)">
        <path id="Path_6564" data-name="Path 6564" d="M273.416,272.34v13.487a1.327,1.327,0,0,1-1.34,1.34H256V271h16.077A1.327,1.327,0,0,1,273.416,272.34Z" transform="translate(-241.263 -271)" fill="#118d3f"/>
        <path id="Path_6565" data-name="Path 6565" d="M91,301v10.807h29.474V301Z" transform="translate(-91 -298.321)" fill="rgba(0,0,0,0.51)"/>
      </g>
      <path id="Path_6566" data-name="Path 6566" d="M182.34,287.166a1.339,1.339,0,0,1-1.34-1.34V272.34a1.34,1.34,0,1,1,2.679,0v13.487A1.339,1.339,0,0,1,182.34,287.166Z" transform="translate(-164.834 -246.796)" fill="#5edd6e"/>
      <path id="Path_6567" data-name="Path 6567" d="M302.34,287.166a1.339,1.339,0,0,1-1.34-1.34V272.34a1.34,1.34,0,1,1,2.679,0v13.487A1.339,1.339,0,0,1,302.34,287.166Z" transform="translate(-274.116 -246.796)" fill="#118d3f"/>
      <path id="Path_6568" data-name="Path 6568" d="M122.34,336.448a1.339,1.339,0,0,1-1.34-1.34V332.34a1.34,1.34,0,0,1,2.679,0v2.769A1.339,1.339,0,0,1,122.34,336.448Z" transform="translate(-110.193 -301.437)" fill="#fff"/>
      <path id="Path_6569" data-name="Path 6569" d="M362.34,336.448a1.339,1.339,0,0,1-1.34-1.34V332.34a1.34,1.34,0,1,1,2.679,0v2.769A1.339,1.339,0,0,1,362.34,336.448Z" transform="translate(-328.757 -301.437)" fill="#fff"/>
      <path id="Path_6570" data-name="Path 6570" d="M185.531,5.529a1.342,1.342,0,0,0-1.045-.911L180.815,4,179.073.67A1.37,1.37,0,0,0,177.841,0a1.386,1.386,0,0,0-1.152.67L174.947,4l-3.671.616a1.342,1.342,0,0,0-1.045.911,1.359,1.359,0,0,0,.322,1.34l2.6,2.679-.536,3.7a1.406,1.406,0,0,0,.536,1.286,1.433,1.433,0,0,0,1.393.107l3.3-1.608.054-.027,3.349,1.634a1.387,1.387,0,0,0,1.367-.107,1.348,1.348,0,0,0,.536-1.286l-.536-3.7,2.6-2.679A1.3,1.3,0,0,0,185.531,5.529Z" transform="translate(-154.976)" fill="#fff"/>
      <path id="Path_6571" data-name="Path 6571" d="M263.368,6.868l-2.6,2.679.536,3.7a1.348,1.348,0,0,1-.536,1.286,1.387,1.387,0,0,1-1.366.107L256.054,13l-.054.027V0a1.37,1.37,0,0,1,1.233.67L258.974,4l3.671.616a1.342,1.342,0,0,1,1.045.911A1.3,1.3,0,0,1,263.368,6.868Z" transform="translate(-233.135)" fill="#00db51"/>
      <path id="Path_6572" data-name="Path 6572" d="M377.377,49.708a1.257,1.257,0,0,0-.938-.884L373.59,48.1l-1.527-2.411a1.357,1.357,0,0,0-1.179-.59,1.384,1.384,0,0,0-1.1.59L368.258,48.1l-2.76.724a1.3,1.3,0,0,0-.938.884,1.338,1.338,0,0,0,.241,1.259l1.822,2.2L366.436,56a1.356,1.356,0,0,0,1.849,1.34l2.6-1.018.054-.027,2.653,1.045a1.561,1.561,0,0,0,1.375-.161A1.412,1.412,0,0,0,375.5,56l-.187-2.84,1.822-2.2A1.272,1.272,0,0,0,377.377,49.708Z" transform="translate(-331.943 -41.071)" fill="#fff"/>
      <path id="Path_6573" data-name="Path 6573" d="M442.252,50.967l-1.822,2.2.188,2.84a1.412,1.412,0,0,1-.536,1.179,1.561,1.561,0,0,1-1.375.161L436.054,56.3l-.054.027V45.1a1.357,1.357,0,0,1,1.179.59l1.527,2.411,2.849.724a1.256,1.256,0,0,1,.938.884A1.271,1.271,0,0,1,442.252,50.967Z" transform="translate(-397.059 -41.071)" fill="#00db51"/>
      <path id="Path_6574" data-name="Path 6574" d="M16.376,49.708a1.257,1.257,0,0,0-.938-.884l-2.76-.723-1.527-2.411a1.357,1.357,0,0,0-1.179-.59,1.384,1.384,0,0,0-1.1.59L7.347,48.1,4.5,48.824a1.3,1.3,0,0,0-.938.884A1.338,1.338,0,0,0,3.8,50.967l1.911,2.2L5.524,56a1.356,1.356,0,0,0,1.849,1.34l2.6-1.018.054-.027,2.653,1.045a1.377,1.377,0,0,0,1.286-.161A1.412,1.412,0,0,0,14.5,56l-.188-2.84,1.822-2.2A1.272,1.272,0,0,0,16.376,49.708Z" transform="translate(-3.184 -41.071)" fill="#fff"/>
      <path id="Path_6575" data-name="Path 6575" d="M82.163,50.967l-1.822,2.2L80.528,56a1.412,1.412,0,0,1-.536,1.179,1.377,1.377,0,0,1-1.286.161L76.054,56.3,76,56.326V45.1a1.357,1.357,0,0,1,1.179.59L78.706,48.1l2.76.724a1.257,1.257,0,0,1,.938.884A1.272,1.272,0,0,1,82.163,50.967Z" transform="translate(-69.212 -41.071)" fill="#00db51"/>
      <path id="Path_6576" data-name="Path 6576" d="M243.679,332.34v2.769a1.34,1.34,0,0,1-2.679,0V332.34a1.34,1.34,0,0,1,2.679,0Z" transform="translate(-219.475 -301.437)" fill="#fff"/>
      <path id="Path_6577" data-name="Path 6577" d="M257.34,332.34v2.769a1.327,1.327,0,0,1-1.34,1.34V331A1.327,1.327,0,0,1,257.34,332.34Z" transform="translate(-233.135 -301.437)" fill="#00db51"/>
    </g>
  </g>
</svg>
