<svg xmlns="http://www.w3.org/2000/svg" width="22.925" height="22.925" viewBox="0 0 22.925 22.925">
  <g id="noun_Basketball_43157" transform="translate(-4.298 -3.289)">
    <g id="Group_1013" data-name="Group 1013" transform="translate(4.298 3.289)">
      <path id="Path_1077" data-name="Path 1077" d="M50.251,74.384c-.193.135-.415.3-.672.492-1.383,1.006-6.071,4.291-11.018,4.385a11.466,11.466,0,0,0,10.008-2.088A9.121,9.121,0,0,0,50.251,74.384Z" transform="translate(-30.012 -56.71)" fill="rgba(255,223,159,0.51)"/>
      <path id="Path_1078" data-name="Path 1078" d="M85.8,73.458a11.489,11.489,0,0,0,.843-1.275c-.073-.038-.187-.03-.372.051A10.982,10.982,0,0,1,85.8,73.458Z" transform="translate(-65.221 -55.053)" fill="rgba(255,223,159,0.51)"/>
      <path id="Path_1079" data-name="Path 1079" d="M88.741,56.743a11.789,11.789,0,0,1-.319,2.115.8.8,0,0,1,.5.029,11.388,11.388,0,0,0,1.1-3.741A7.509,7.509,0,0,1,88.741,56.743Z" transform="translate(-67.172 -42.373)" fill="rgba(255,223,159,0.51)"/>
      <path id="Path_1080" data-name="Path 1080" d="M88.731,40.229a13.494,13.494,0,0,1,.263,2.495A4.117,4.117,0,0,0,90.318,41.1c0-.127.01-.254.01-.382a11.46,11.46,0,0,0-.449-3.174A4.912,4.912,0,0,1,88.731,40.229Z" transform="translate(-67.403 -29.251)" fill="rgba(255,223,159,0.51)"/>
      <path id="Path_1081" data-name="Path 1081" d="M57.322,15.214c.693-.572,1.012-1.788.75-3.479A11.462,11.462,0,0,0,47.631,5c-.273,0-.542.013-.81.032C52.08,5.827,56.045,10.247,57.322,15.214Z" transform="translate(-36.168 -5)" fill="rgba(255,223,159,0.51)"/>
      <path id="Path_1082" data-name="Path 1082" d="M22.3,14.365c5.094,2.779,6.722,3.35,8.966,2.556C29.527,9.852,23.31,6.554,19.066,6.8a11.484,11.484,0,0,0-6.214,4.524C14.843,10.889,16.578,11.45,22.3,14.365Z" transform="translate(-10.852 -6.335)" fill="rgba(255,223,159,0.51)"/>
      <path id="Path_1083" data-name="Path 1083" d="M17.022,64.936c1.18-.347,6.526-3.333,7.22-3.679.308-.154,1-.662,1.658-.993a10.057,10.057,0,0,0,.3-1.871,17.077,17.077,0,0,1-4.462,1.337c-3.327.932-10.351,1.986-16.247-3.061a11.471,11.471,0,0,0,6.012,8.452A9.6,9.6,0,0,0,17.022,64.936Z" transform="translate(-5.37 -43.508)" fill="rgba(255,223,159,0.51)"/>
      <path id="Path_1084" data-name="Path 1084" d="M21.026,36.836a18.544,18.544,0,0,0,4.834-1.58,12.913,12.913,0,0,0-.113-1.545c-.037-.3-.083-.593-.135-.881-1.075.583-2.756.658-5.419-.3-2.777-1.319-9.1-5.554-11.8-5.554a6.834,6.834,0,0,0-1.8-.034A11.406,11.406,0,0,0,5,32.771c0,.278.013.552.033.825C7.249,35.989,14.163,38.753,21.026,36.836Z" transform="translate(-5 -21.309)" fill="rgba(255,223,159,0.51)"/>
    </g>
  </g>
</svg>
