<svg xmlns="http://www.w3.org/2000/svg" width="22.403" height="22.401" viewBox="0 0 22.403 22.401"><g id="Group_997" data-name="Group 997" transform="translate(0)"><path id="Path_1062" data-name="Path 1062" d="M139.265,158.942l.53-.53-1.874-1.874-.53.53A1.326,1.326,0,1,0,139.265,158.942Zm16.617-10.3a2.617,2.617,0,1,1-2.618,2.618,2.619,2.619,0,0,1,2.618-2.618Zm-15.425,9.114,1.141-1.143-1.874-1.874-1.142,1.143Zm1.8-1.8,1.032-1.031h2.995l13.079-13.077-2.437-2.434-2.435-2.435-13.077,13.077v3l-1.031,1.031Z" transform="translate(-136.963 -136.97)" fill="rgba(255,223,159,0.51)" fill-rule="evenodd" /></g></svg>