<svg xmlns="http://www.w3.org/2000/svg" width="22.283" height="22.283" viewBox="0 0 22.283 22.283"><path id="Icon_ionic-ios-football" data-name="Icon ionic-ios-football" d="M14.516,3.375A11.141,11.141,0,1,0,25.658,14.516,11.14,11.14,0,0,0,14.516,3.375ZM21.335,7.7a9.567,9.567,0,0,1,1.211,1.473.2.2,0,0,1,.021.187L21.8,11.57a.213.213,0,0,1-.112.123L18.6,13.1a.216.216,0,0,1-.225-.032l-3.032-2.55a.22.22,0,0,1-.075-.166V6.969a.214.214,0,0,1,.1-.177l2.057-1.4a.211.211,0,0,1,.187-.027A9.762,9.762,0,0,1,21.335,7.7ZM17.377,23.639a.2.2,0,0,1-.139.129,9.628,9.628,0,0,1-2.721.386,9.8,9.8,0,0,1-2.721-.386.222.222,0,0,1-.139-.129l-.878-2.3a.225.225,0,0,1,.011-.177l1.194-2.266a.216.216,0,0,1,.187-.112h4.687a.21.21,0,0,1,.187.112l1.194,2.266a.225.225,0,0,1,.011.177ZM13.767,6.98v3.38a.22.22,0,0,1-.075.166L10.654,13.07a.216.216,0,0,1-.225.032L7.35,11.7a.211.211,0,0,1-.112-.123L6.466,9.369a.21.21,0,0,1,.021-.187,9.711,9.711,0,0,1,4.939-3.792.211.211,0,0,1,.187.027l2.057,1.4A.177.177,0,0,1,13.767,6.98Zm-8.8,7.97L6.9,13.279a.214.214,0,0,1,.23-.032l2.807,1.275a.215.215,0,0,1,.118.145l.782,3.069a.256.256,0,0,1-.016.155L9.578,20.243a.209.209,0,0,1-.193.112l-2.464-.032a.224.224,0,0,1-.171-.086,9.573,9.573,0,0,1-1.859-5.11A.234.234,0,0,1,4.966,14.95ZM19.45,20.237l-1.237-2.346a.2.2,0,0,1-.016-.155l.782-3.069a.215.215,0,0,1,.118-.145L21.9,13.247a.225.225,0,0,1,.23.032l1.934,1.671a.217.217,0,0,1,.075.177,9.545,9.545,0,0,1-1.859,5.11.208.208,0,0,1-.171.086l-2.469.032A.235.235,0,0,1,19.45,20.237Z" transform="translate(-3.375 -3.375)" fill="rgba(255,223,159,0.51)" /></svg>