<svg xmlns="http://www.w3.org/2000/svg" width="22.887" height="27.552" viewBox="0 0 22.887 27.552">
  <g id="noun_ice_hockey_1422673" data-name="noun_ice hockey_1422673" transform="translate(-16.317 -18.253)">
    <g id="Group_1015" data-name="Group 1015" transform="translate(16.317 18.253)">
      <path id="Path_1085" data-name="Path 1085" d="M37.072,30.474,31.651,26.7a3.228,3.228,0,0,0-5.6.106l-4.088,7.438a3.22,3.22,0,0,0-.258,2.5l-6.83,7.037a.97.97,0,0,0,1.391,1.351l6.567-6.765a3.225,3.225,0,0,0,4.794-1.007l.017-.031,1.575,2.43L25.639,44.3a1.871,1.871,0,0,0-.942-.234c-.742,0-1.344.364-1.344.812s.6.812,1.344.812,1.344-.364,1.344-.812c0-.013-.005-.024-.006-.037l3.554-4.5,3.393,5.236a.97.97,0,0,0,1.628-1.055l-3.752-5.789,5.209-6.6a.969.969,0,0,0,1-1.652Zm-6.584,7.679L28.7,35.4l3.011-5.478a3.219,3.219,0,0,0,.263-.63l3.551,2.471Z" transform="translate(-14.601 -19.435)" fill="rgba(255,223,159,0.51)"/>
      <circle id="Ellipse_12" data-name="Ellipse 12" cx="2.697" cy="2.697" r="2.697" transform="translate(14.911)" fill="rgba(255,223,159,0.51)"/>
      <path id="Path_1086" data-name="Path 1086" d="M70.916,90.75H67.088a.323.323,0,0,0,0,.646h3.828a.323.323,0,1,0,0-.646Z" transform="translate(-49.906 -63.844)" fill="rgba(255,223,159,0.51)"/>
    </g>
  </g>
</svg>
