<svg xmlns="http://www.w3.org/2000/svg" width="22.735" height="29.458" viewBox="0 0 22.735 29.458">
  <g id="noun_ping_pong_1974302" data-name="noun_ping pong_1974302" transform="translate(-3.455 0.714)">
    <g id="Group_1017" data-name="Group 1017" transform="translate(3.455 -0.714)">
      <path id="Path_1096" data-name="Path 1096" d="M12.893,4680.226,2.954,4674a9.378,9.378,0,0,0,1.873,3.589c.589.688.35.92-.036,1.481l-4.791,7,3.321,2.08,4.2-7.365c.373-.652.485-.9,1.32-.682A9.308,9.308,0,0,0,12.893,4680.226Z" transform="translate(0 -4658.693)" fill="rgba(255,223,159,0.51)"/>
      <path id="Path_1097" data-name="Path 1097" d="M3249.839,969.822a1.956,1.956,0,1,0,0,2.767A1.955,1.955,0,0,0,3249.839,969.822Z" transform="translate(-3235.868 -966.076)" fill="rgba(255,223,159,0.51)"/>
      <path id="Path_1098" data-name="Path 1098" d="M785.009,14.291l11.154,6.985a12.23,12.23,0,0,0,6.89-5.335c2.895-4.621,2.892-11.528-2.122-14.668s-11.229-.134-14.124,4.49A12.287,12.287,0,0,0,785.009,14.291Zm9.857-11.865a2.684,2.684,0,1,1-2.682,2.685A2.685,2.685,0,0,1,794.866,2.426Z" transform="translate(-782.278 0.021)" fill="rgba(255,223,159,0.51)"/>
    </g>
  </g>
</svg>
