<svg xmlns="http://www.w3.org/2000/svg" width="22.14" height="22.145" viewBox="0 0 22.14 22.145">
  <g id="Group_1012" data-name="Group 1012" transform="translate(0)">
    <g id="Group_998" data-name="Group 998" transform="translate(0 14.943)">
      <path id="Path_1063" data-name="Path 1063" d="M2.418,93.4a.344.344,0,0,1-.244-.1L.6,91.728a.337.337,0,0,1,0-.488L5.539,86.3a.337.337,0,0,1,.488,0L7.6,87.874a.337.337,0,0,1,0,.488L2.662,93.3A.344.344,0,0,1,2.418,93.4ZM1.337,91.483,2.4,92.547l4.464-4.429L5.783,87.037Z" transform="translate(-0.5 -86.2)" fill="rgba(255,223,159,0.51)"/>
    </g>
    <g id="Group_999" data-name="Group 999" transform="translate(8.724)">
      <path id="Path_1064" data-name="Path 1064" d="M55.723,13.926a5.142,5.142,0,0,1-3.732-1.465c-2.3-2.3-1.831-6.521,1.064-9.416A8.236,8.236,0,0,1,58.757.5a5.142,5.142,0,0,1,3.732,1.465A5.353,5.353,0,0,1,63.9,6.5a8.367,8.367,0,0,1-2.493,4.882A8.165,8.165,0,0,1,55.723,13.926ZM58.757,1.2a7.541,7.541,0,0,0-5.2,2.337c-2.633,2.633-3.1,6.417-1.081,8.439a4.458,4.458,0,0,0,3.243,1.255,7.541,7.541,0,0,0,5.2-2.337A7.724,7.724,0,0,0,63.2,6.411a4.648,4.648,0,0,0-1.221-3.958A4.417,4.417,0,0,0,58.757,1.2Z" transform="translate(-50.532 -0.5)" fill="rgba(255,223,159,0.51)"/>
    </g>
    <g id="Group_1000" data-name="Group 1000" transform="translate(5.44 7.584)">
      <path id="Path_1065" data-name="Path 1065" d="M32.624,53.13h0a.344.344,0,0,1-.244-.1L31.8,52.45a.337.337,0,0,1,0-.488,10.765,10.765,0,0,0,3.1-6.626L35,44.307a.336.336,0,0,1,.366-.314.362.362,0,0,1,.331.366,4.6,4.6,0,0,0,1.255,3.557,4.458,4.458,0,0,0,3.243,1.255h.314a.35.35,0,0,1,.366.331.336.336,0,0,1-.314.366l-1.064.052a10.721,10.721,0,0,0-6.626,3.1A.438.438,0,0,1,32.624,53.13Zm-.1-.942.087.087a11.415,11.415,0,0,1,5.423-2.842,4.692,4.692,0,0,1-1.6-1.064,4.778,4.778,0,0,1-1.064-1.6A11.265,11.265,0,0,1,32.52,52.188Z" transform="translate(-31.7 -43.992)" fill="rgba(255,223,159,0.51)"/>
    </g>
    <g id="Group_1001" data-name="Group 1001" transform="translate(8.945 0.227)">
      <path id="Path_1066" data-name="Path 1066" d="M51.974,9.141a.158.158,0,0,1-.122-.052.169.169,0,0,1,0-.244l6.992-6.992a.173.173,0,0,1,.244.244L52.1,9.089A.158.158,0,0,1,51.974,9.141Z" transform="translate(-51.8 -1.8)" fill="rgba(255,223,159,0.51)"/>
    </g>
    <g id="Group_1002" data-name="Group 1002" transform="translate(9.172 0.453)">
      <path id="Path_1067" data-name="Path 1067" d="M53.274,12.812a.158.158,0,0,1-.122-.052.169.169,0,0,1,0-.244L62.5,3.152a.173.173,0,0,1,.244.244L53.4,12.76A.158.158,0,0,1,53.274,12.812Z" transform="translate(-53.1 -3.1)" fill="rgba(255,223,159,0.51)"/>
    </g>
    <g id="Group_1003" data-name="Group 1003" transform="translate(10.253 1.534)">
      <path id="Path_1068" data-name="Path 1068" d="M59.474,19.658a.158.158,0,0,1-.122-.052.169.169,0,0,1,0-.244L69.361,9.352a.173.173,0,0,1,.244.244L59.6,19.605A.188.188,0,0,1,59.474,19.658Z" transform="translate(-59.3 -9.3)" fill="rgba(255,223,159,0.51)"/>
    </g>
    <g id="Group_1004" data-name="Group 1004" transform="translate(11.979 3.278)">
      <path id="Path_1069" data-name="Path 1069" d="M69.374,28.995a.158.158,0,0,1-.122-.052.169.169,0,0,1,0-.244L78.6,19.352a.173.173,0,0,1,.244.244l-9.329,9.346A.2.2,0,0,1,69.374,28.995Z" transform="translate(-69.2 -19.3)" fill="rgba(255,223,159,0.51)"/>
    </g>
    <g id="Group_1005" data-name="Group 1005" transform="translate(14.577 5.859)">
      <path id="Path_1070" data-name="Path 1070" d="M84.274,41.441a.158.158,0,0,1-.122-.052.169.169,0,0,1,0-.244l6.992-6.992a.173.173,0,0,1,.244.244L84.4,41.389A.188.188,0,0,1,84.274,41.441Z" transform="translate(-84.1 -34.1)" fill="rgba(255,223,159,0.51)"/>
    </g>
    <g id="Group_1006" data-name="Group 1006" transform="translate(15.711 0.262)">
      <path id="Path_1071" data-name="Path 1071" d="M96.6,8.173a.158.158,0,0,1-.122-.052L90.652,2.3a.173.173,0,1,1,.244-.244L96.72,7.876a.169.169,0,0,1,0,.244A.188.188,0,0,1,96.6,8.173Z" transform="translate(-90.6 -2)" fill="rgba(255,223,159,0.51)"/>
    </g>
    <g id="Group_1007" data-name="Group 1007" transform="translate(13.235 1.151)">
      <path id="Path_1072" data-name="Path 1072" d="M83.985,14.859a.158.158,0,0,1-.122-.052L76.452,7.4a.173.173,0,0,1,.244-.244l7.411,7.411a.169.169,0,0,1,0,.244A.188.188,0,0,1,83.985,14.859Z" transform="translate(-76.4 -7.1)" fill="rgba(255,223,159,0.51)"/>
    </g>
    <g id="Group_1008" data-name="Group 1008" transform="translate(11.334 2.616)">
      <path id="Path_1073" data-name="Path 1073" d="M73.521,23.7a.158.158,0,0,1-.122-.052L65.552,15.8a.173.173,0,0,1,.244-.244l7.864,7.864a.169.169,0,0,1,0,.244A.41.41,0,0,1,73.521,23.7Z" transform="translate(-65.5 -15.5)" fill="rgba(255,223,159,0.51)"/>
    </g>
    <g id="Group_1009" data-name="Group 1009" transform="translate(9.869 4.516)">
      <path id="Path_1074" data-name="Path 1074" d="M64.685,34.159a.158.158,0,0,1-.122-.052L57.152,26.7a.173.173,0,1,1,.244-.244l7.411,7.411a.169.169,0,0,1,0,.244A.188.188,0,0,1,64.685,34.159Z" transform="translate(-57.1 -26.4)" fill="rgba(255,223,159,0.51)"/>
    </g>
    <g id="Group_1010" data-name="Group 1010" transform="translate(8.98 6.992)">
      <path id="Path_1075" data-name="Path 1075" d="M58,46.773a.158.158,0,0,1-.122-.052L52.052,40.9a.173.173,0,1,1,.244-.244l5.824,5.824a.169.169,0,0,1,0,.244A.188.188,0,0,1,58,46.773Z" transform="translate(-52 -40.6)" fill="rgba(255,223,159,0.51)"/>
    </g>
    <g id="Group_1011" data-name="Group 1011" transform="translate(12.624 16.007)">
      <path id="Path_1076" data-name="Path 1076" d="M75.969,98.438a3.069,3.069,0,1,1,3.069-3.069A3.073,3.073,0,0,1,75.969,98.438Zm0-5.423a2.371,2.371,0,1,0,2.371,2.371A2.374,2.374,0,0,0,75.969,93.015Z" transform="translate(-72.9 -92.3)" fill="rgba(255,223,159,0.51)"/>
    </g>
  </g>
</svg>
