<svg id="Group_1016" data-name="Group 1016" xmlns="http://www.w3.org/2000/svg" width="22.083" height="22.11" viewBox="0 0 22.083 22.11">
  <path id="Path_1087" data-name="Path 1087" d="M18.431,9.225c.039.218.083.435.141.652a7.691,7.691,0,0,0,.713,1.742C23.98,7.5,29.76,9.44,32.01,10.456A11.12,11.12,0,0,0,27.98,5.7C26.754,5.383,22.552,4.742,18.431,9.225Z" transform="translate(-10.876 -3.874)" fill="rgba(255,223,159,0.51)"/>
  <path id="Path_1088" data-name="Path 1088" d="M11.188,22.693c-6.062-2.3-6.906-8.554-7-11.014A10.993,10.993,0,0,0,2.03,17.539c.263,1.1,1.608,5.15,7.353,6.964A7.716,7.716,0,0,0,11.188,22.693Z" transform="translate(-2.03 -7.22)" fill="rgba(255,223,159,0.51)"/>
  <path id="Path_1089" data-name="Path 1089" d="M8.528,35.149a11.629,11.629,0,0,1-6.17-4.881,11.033,11.033,0,0,0,2.907,5.683A7.6,7.6,0,0,0,8.528,35.149Z" transform="translate(-2.207 -17.247)" fill="rgba(255,223,159,0.51)"/>
  <path id="Path_1090" data-name="Path 1090" d="M10.66,33.8a11.025,11.025,0,0,0,4.682,2.291l.128-.069c.306-.165,7.345-4.047,5.818-11.332a7.6,7.6,0,0,0-3.124.891A8.583,8.583,0,0,1,10.66,33.8Z" transform="translate(-6.684 -14.237)" fill="rgba(255,223,159,0.51)"/>
  <path id="Path_1091" data-name="Path 1091" d="M34.387,22.059A11,11,0,0,0,34.067,17c-.461-.271-7.33-4.164-12.7.689a7.617,7.617,0,0,0,2.152,1.989A8.585,8.585,0,0,1,34.387,22.059Z" transform="translate(-12.461 -9.155)" fill="rgba(255,223,159,0.51)"/>
  <path id="Path_1092" data-name="Path 1092" d="M31.83,25.249a7.714,7.714,0,0,0-2.479-.575c1.207,6.28-3.506,10.258-5.485,11.621.32.028.642.045.969.045a10.98,10.98,0,0,0,5.013-1.207C30.814,34.044,33.127,30.743,31.83,25.249Z" transform="translate(-13.808 -14.23)" fill="rgba(255,223,159,0.51)"/>
  <path id="Path_1093" data-name="Path 1093" d="M42.228,27.061a12.111,12.111,0,0,1-1.036,8.051A11.087,11.087,0,0,0,44.8,29.644,7.608,7.608,0,0,0,42.228,27.061Z" transform="translate(-23.152 -15.517)" fill="rgba(255,223,159,0.51)"/>
  <path id="Path_1094" data-name="Path 1094" d="M8.7,6.315c-.026.356-.533,8.615,6.577,11.162a7.607,7.607,0,0,0,.9-3.379,8.514,8.514,0,0,1-3.755-5.054,8.679,8.679,0,0,1-.217-1.151L12.2,7.862l.008-.009a8.481,8.481,0,0,1,.611-4.364,11.083,11.083,0,0,0-4.1,2.682Z" transform="translate(-5.62 -2.803)" fill="rgba(255,223,159,0.51)"/>
  <path id="Path_1095" data-name="Path 1095" d="M18.185,6.144a11.1,11.1,0,0,1,7.487-3.431,11.024,11.024,0,0,0-6.534-.394A7.6,7.6,0,0,0,18.185,6.144Z" transform="translate(-10.742 -2)" fill="rgba(255,223,159,0.51)"/>
</svg>
